<?xml version="1.0" standalone="no"?>
<!DOCTYPE svg PUBLIC "-//W3C//DTD SVG 20010904//EN"
 "http://www.w3.org/TR/2001/REC-SVG-20010904/DTD/svg10.dtd">
<svg version="1.0" xmlns="http://www.w3.org/2000/svg"
 width="453.000000pt" height="550.000000pt" viewBox="0 0 453.000000 550.000000"
 preserveAspectRatio="xMidYMid meet">

<g transform="translate(0.000000,550.000000) scale(0.100000,-0.100000)"
fill="#000000" stroke="none">
<path d="M3851 5320 c-3 -62 -80 -422 -122 -570 -93 -326 -178 -532 -289 -700
-63 -94 -174 -201 -245 -234 l-60 -29 -44 -121 c-106 -293 -248 -547 -393
-702 -65 -69 -165 -150 -175 -141 -3 4 9 48 26 100 17 51 31 97 31 101 0 5
-28 -16 -62 -46 -83 -72 -82 -72 -120 -52 -36 19 -172 25 -238 11 -32 -7 -43
-2 -120 48 -47 30 -86 51 -88 45 -2 -6 6 -51 18 -100 31 -126 28 -131 -51 -71
-93 70 -198 195 -283 335 -93 153 -203 396 -246 543 -12 38 -19 45 -79 74
-147 72 -266 231 -406 544 -78 176 -198 616 -236 870 -6 44 -15 83 -18 87 -4
4 -15 -45 -25 -110 -42 -279 -169 -630 -309 -857 -64 -104 -102 -161 -124
-185 -13 -14 -23 -28 -23 -31 0 -4 35 -10 77 -14 146 -13 320 -51 453 -99 63
-23 149 -64 110 -53 -74 22 -272 69 -340 81 -106 19 -261 38 -267 33 -2 -3 16
-16 40 -30 119 -70 209 -216 271 -442 29 -107 66 -404 66 -535 l0 -93 52 74
c70 100 238 302 238 287 0 -4 -20 -35 -44 -70 -76 -109 -206 -336 -206 -359 0
-3 35 -11 78 -18 94 -16 200 -51 310 -103 265 -125 527 -365 768 -703 72 -101
204 -315 204 -330 0 -3 -20 -5 -44 -5 -41 0 -46 3 -67 38 -66 111 -132 211
-203 307 -98 134 -134 175 -267 307 -239 235 -469 367 -724 413 -105 19 -131
30 -159 68 -19 26 -21 46 -27 245 -6 212 -31 405 -50 385 -18 -20 -81 -227
-111 -366 -30 -146 -32 -162 -32 -387 -1 -220 1 -244 28 -375 73 -359 219
-661 446 -923 l72 -84 -22 -121 c-88 -507 -83 -467 -87 -724 -4 -196 -2 -243
9 -243 7 0 31 5 53 10 418 101 1057 152 1633 131 332 -13 555 -26 677 -41 50
-6 169 -20 265 -31 96 -10 247 -30 335 -44 88 -13 163 -24 168 -25 4 0 7 96 7
213 0 182 -4 232 -25 352 -14 77 -41 235 -62 351 l-36 211 35 39 c131 143 281
379 360 569 155 370 194 814 107 1195 -36 156 -153 461 -169 443 -13 -14 -48
-175 -60 -268 -6 -49 -13 -183 -17 -298 -8 -266 2 -252 -184 -276 -395 -51
-849 -437 -1179 -1002 l-41 -69 -45 0 -45 0 15 29 c9 16 43 73 77 127 350 561
746 896 1167 986 53 11 98 22 100 23 12 10 -172 271 -263 373 -24 27 -32 41
-19 34 29 -15 227 -216 283 -286 l46 -59 6 159 c19 483 136 804 336 921 24 14
43 27 43 30 0 21 -295 -26 -524 -83 -55 -13 -101 -22 -103 -20 -5 4 184 70
277 96 41 11 143 31 225 44 83 14 145 25 139 25 -33 3 -268 413 -299 521 -4
14 -13 39 -21 55 -43 96 -99 321 -143 570 -5 28 -9 39 -10 25z m-1853 -3732
c4 -30 0 -31 -70 -28 -32 1 -38 -2 -38 -19 0 -14 -6 -21 -20 -21 -17 0 -20 7
-20 50 l0 51 73 -3 c70 -3 72 -4 75 -30z m72 -14 l0 -45 38 3 c36 3 37 4 40
46 3 34 7 42 23 42 18 0 20 -6 17 -47 l-3 -48 -75 0 -75 0 -3 48 c-3 42 -1 47
17 47 18 0 21 -6 21 -46z m230 15 l35 -30 3 31 c2 22 8 30 23 30 16 0 19 -7
19 -50 0 -44 -2 -50 -21 -50 -12 0 -39 14 -60 31 l-39 31 0 -31 c0 -24 -4 -31
-20 -31 -17 0 -20 7 -20 50 0 45 2 50 23 50 12 -1 38 -14 57 -31z m250 21 c0
-5 -13 -10 -30 -10 -28 0 -30 -2 -30 -40 0 -29 -4 -40 -15 -40 -11 0 -15 11
-15 40 0 36 -3 40 -24 40 -14 0 -28 5 -31 10 -4 6 22 10 69 10 44 0 76 -4 76
-10z m175 -40 l0 -45 -75 0 -75 0 -3 39 c-4 50 7 57 88 54 l65 -3 0 -45z
m-935 1 c0 -17 -3 -32 -7 -34 -5 -2 -69 -1 -143 3 -74 5 -235 11 -358 15 -123
4 -221 10 -218 12 6 6 456 30 609 32 l117 1 0 -29z m1538 13 c89 -4 162 -10
162 -14 0 -3 -145 -12 -322 -19 -178 -7 -335 -15 -350 -18 -27 -5 -28 -4 -28
32 l0 38 188 -6 c103 -4 260 -10 350 -13z m250 -119 c57 -47 65 -83 123 -505
20 -144 21 -158 6 -192 -15 -37 -18 -38 -67 -38 -61 0 -100 19 -133 62 -34 46
-41 73 -87 323 -48 263 -50 316 -15 350 20 21 34 25 84 25 49 0 65 -4 89 -25z
m-2504 -21 c-14 -34 -45 -185 -39 -192 5 -6 83 138 101 186 l17 42 58 0 59 0
-39 -57 c-21 -32 -61 -99 -89 -148 l-51 -91 15 -159 c7 -88 18 -182 24 -208 5
-26 10 -52 10 -57 0 -6 -27 -10 -61 -10 -56 0 -60 1 -54 21 4 11 3 74 0 140
-6 96 -10 117 -20 109 -14 -12 -32 -102 -43 -216 l-7 -69 -49 -8 c-56 -9 -62
-6 -47 22 7 11 18 62 25 113 35 234 67 437 76 481 5 27 10 68 10 93 l0 44 59
0 60 0 -15 -36z m458 -1 c-4 -21 -7 -176 -7 -345 0 -277 -2 -308 -16 -308 -9
0 -37 -3 -63 -6 l-46 -7 6 62 7 62 -49 -3 -49 -3 -15 -61 -14 -62 -55 -5 c-60
-7 -69 -4 -53 15 5 7 43 114 83 238 102 320 129 409 129 436 0 23 3 24 74 24
l75 0 -7 -37z m348 17 c33 -33 42 -69 35 -145 -11 -122 -25 -174 -56 -210
l-29 -33 19 -89 c11 -48 27 -108 36 -132 8 -24 15 -45 15 -47 0 -2 -32 -4 -71
-4 -64 0 -70 2 -64 18 10 26 -27 242 -42 242 -15 0 -27 -73 -27 -175 -1 -90
-2 -91 -95 -94 -37 -1 -42 1 -36 17 19 49 96 539 97 619 l1 53 98 0 c86 0 102
-3 119 -20z m353 -57 c8 -140 63 -479 92 -570 7 -22 5 -23 -65 -23 l-72 0 7
30 c4 17 4 44 0 60 -6 28 -9 30 -55 30 -57 0 -70 -15 -70 -78 l0 -39 -61 -7
c-34 -3 -65 -4 -69 -1 -5 3 0 26 11 50 31 69 145 586 135 611 -4 11 10 14 68
14 l74 0 5 -77z m391 40 c-20 -115 -67 -341 -88 -427 l-24 -98 79 4 79 5 0
-32 c0 -18 3 -47 6 -64 l6 -31 -153 6 c-85 4 -156 8 -158 10 -1 1 11 49 27
106 44 148 112 422 112 448 0 7 -25 6 -107 -5 l-33 -4 0 60 0 59 130 0 131 0
-7 -37z m161 14 c-5 -20 49 -503 59 -533 6 -15 76 -28 88 -16 13 13 -55 497
-77 555 -6 15 0 17 53 17 56 0 59 -1 55 -22 -2 -13 3 -66 11 -118 48 -296 69
-458 63 -480 -13 -52 -42 -70 -113 -70 -35 0 -80 6 -98 14 -46 19 -82 84 -90
161 -16 159 -47 433 -52 455 -3 14 -7 33 -10 43 -5 15 2 17 56 17 58 0 60 -1
55 -23z m376 -92 c71 -160 103 -225 106 -221 3 3 -9 71 -38 216 -6 30 -17 70
-25 88 l-13 32 57 0 58 0 12 -92 c6 -51 19 -127 27 -168 8 -41 26 -139 40
-218 14 -79 33 -163 41 -188 8 -25 13 -48 10 -52 -3 -3 -27 -1 -53 4 l-47 9
-38 85 c-87 198 -112 252 -116 242 -5 -16 38 -241 54 -281 8 -18 14 -35 14
-38 0 -2 -27 -3 -61 -1 l-60 3 -4 60 c-2 33 -11 98 -20 145 -9 47 -26 150 -40
230 -24 149 -37 211 -50 243 -7 16 -2 18 45 15 l52 -3 49 -110z m-741 -670 c0
-31 3 -35 25 -35 22 0 25 4 25 36 0 30 3 35 20 32 12 -2 21 -6 20 -10 0 -5 0
-48 0 -98 0 -87 -1 -90 -22 -90 -21 0 -23 5 -23 47 0 45 -2 48 -25 48 -24 0
-25 -3 -22 -47 4 -46 3 -48 -22 -48 l-26 0 0 100 0 100 25 0 c22 0 25 -4 25
-35z m249 -67 c12 -51 21 -96 21 -100 0 -5 -11 -8 -25 -8 -18 0 -25 5 -25 20
0 15 -7 20 -25 20 -19 0 -25 -5 -25 -21 0 -16 -5 -20 -27 -17 -32 4 -33 -2 2
111 25 82 28 87 54 87 28 0 29 -3 50 -92z m126 46 c14 -38 19 -44 27 -30 5 9
8 27 6 39 -3 23 2 27 28 27 13 0 15 -15 13 -95 l-3 -96 -25 3 c-21 2 -29 12
-41 46 -19 55 -30 53 -30 -4 0 -41 -2 -45 -22 -42 -13 2 -22 6 -20 11 1 4 2
48 2 97 0 88 1 90 24 90 19 0 27 -9 41 -46z m-1225 1 c0 -31 3 -35 26 -35 24
0 26 3 22 35 -4 33 -2 35 24 35 l28 0 0 -90 c0 -49 0 -93 0 -97 0 -5 -10 -8
-22 -8 -16 0 -23 6 -24 20 -3 75 -3 75 -29 75 -25 0 -26 -1 -19 -50 6 -48 6
-50 -18 -50 -25 0 -26 2 -30 93 -5 91 0 106 30 107 7 0 12 -14 12 -35z m1450
17 c21 -17 22 -23 15 -90 -5 -57 -11 -75 -26 -83 -22 -11 -115 -8 -111 4 1 4
2 48 2 97 l0 90 49 0 c32 0 56 -6 71 -18z m-1545 -8 c20 -20 16 -48 -8 -52
-12 -3 -20 4 -24 17 -6 24 -5 23 -27 15 -17 -7 -20 -35 -10 -96 5 -28 11 -38
25 -38 12 0 19 7 19 20 0 15 7 20 25 20 20 0 25 -5 25 -24 0 -29 -15 -42 -61
-50 -27 -5 -42 -2 -58 11 -20 16 -22 26 -19 98 3 80 3 80 33 86 50 11 63 10
80 -7z m1712 -5 c6 -6 11 -41 11 -84 1 -102 -11 -113 -101 -98 -37 6 -38 7
-33 37 3 17 6 58 7 91 1 33 3 62 5 65 4 9 98 -1 111 -11z m-1080 -25 c46 -16
83 -31 83 -34 0 -8 -54 -30 -121 -50 -59 -18 -62 -18 -117 1 -74 25 -112 42
-112 50 0 3 17 11 38 18 20 7 57 21 82 31 25 10 50 17 55 15 6 -1 47 -15 92
-31z m-803 -56 c15 -46 30 -89 33 -95 3 -9 -4 -13 -20 -13 -14 0 -27 7 -31 15
-8 22 -47 19 -53 -5 -3 -12 -14 -20 -28 -20 l-22 0 13 88 c8 48 14 93 14 100
0 7 13 12 33 12 32 0 33 -1 61 -82z m2046 55 c0 -16 4 -44 9 -63 5 -19 12 -52
16 -73 6 -37 5 -38 -22 -35 -17 2 -28 9 -28 18 0 9 -11 16 -27 18 -20 2 -28
-1 -28 -12 0 -10 -9 -16 -26 -16 -29 0 -30 -4 11 107 29 81 31 83 63 83 28 0
32 -3 32 -27z m-2210 2 c0 -10 -10 -15 -31 -15 -26 0 -30 -3 -27 -22 2 -17 9
-22 26 -20 28 4 30 -24 2 -31 -14 -3 -20 -14 -20 -31 0 -23 4 -26 35 -26 24 0
35 -5 35 -15 0 -9 -9 -15 -24 -15 -13 0 -37 -3 -53 -6 l-30 -6 -12 76 c-19
129 -20 126 44 126 42 0 55 -3 55 -15z m2327 1 c-3 -8 -9 -46 -13 -85 l-7 -71
32 0 c22 0 31 -5 31 -16 0 -14 -9 -16 -50 -12 -28 3 -53 7 -56 10 -2 3 0 47 7
97 11 87 13 91 36 91 17 0 23 -4 20 -14z m-2489 -15 c19 -11 44 -139 32 -161
-9 -16 -57 -30 -106 -30 -17 0 -21 7 -23 44 -1 24 -5 66 -10 94 l-8 51 31 4
c56 7 71 7 84 -2z m2622 -41 c-9 -105 -7 -115 23 -118 15 -2 27 -9 27 -18 0
-15 -23 -17 -81 -8 l-35 6 8 46 c4 26 11 69 14 95 5 42 8 48 27 45 19 -3 21
-8 17 -48z"/>
<path d="M1890 1587 c0 -9 11 -12 35 -9 19 2 35 8 35 13 0 5 -16 9 -35 9 -22
0 -35 -5 -35 -13z"/>
<path d="M2610 1565 c0 -34 1 -35 40 -35 39 0 40 1 40 35 0 34 -1 35 -40 35
-39 0 -40 -1 -40 -35z"/>
<path d="M3475 1318 c17 -106 76 -428 81 -441 6 -16 72 -28 77 -14 1 5 -12 95
-30 200 -18 106 -36 215 -41 242 l-7 50 -44 3 -43 3 7 -43z"/>
<path d="M1415 1238 c-10 -35 -26 -88 -36 -118 -21 -67 -26 -99 -16 -100 4 0
18 0 31 0 27 0 23 -20 41 218 3 34 4 62 2 62 -2 0 -12 -28 -22 -62z"/>
<path d="M1747 1328 c-3 -24 -9 -67 -12 -95 l-7 -53 35 0 c40 0 44 7 54 118
l6 72 -35 0 c-34 0 -36 -2 -41 -42z"/>
<path d="M2147 1280 c-3 -8 -13 -59 -21 -112 -9 -53 -19 -104 -22 -113 -5 -12
2 -15 35 -15 l41 0 -6 58 c-16 162 -21 196 -27 182z"/>
<path d="M2610 650 c0 -8 -3 -25 -6 -37 -5 -17 -2 -23 10 -23 18 0 22 36 6 60
-9 13 -10 13 -10 0z"/>
<path d="M2947 618 c-6 -66 1 -85 27 -75 11 5 16 21 18 57 0 27 1 56 2 63 1 6
-8 13 -20 15 -19 3 -22 -3 -27 -60z"/>
<path d="M3120 634 c0 -33 33 -30 38 4 3 17 -2 22 -17 22 -16 0 -21 -6 -21
-26z"/>
<path d="M3110 555 c0 -20 5 -25 25 -25 20 0 25 5 25 25 0 20 -5 25 -25 25
-20 0 -25 -5 -25 -25z"/>
<path d="M1240 585 c0 -26 4 -35 16 -35 12 0 15 6 10 23 -3 12 -6 28 -6 35 0
6 -4 12 -10 12 -5 0 -10 -16 -10 -35z"/>
<path d="M3296 597 c-9 -35 -7 -47 9 -47 10 0 15 10 15 29 0 37 -16 49 -24 18z"/>
<path d="M920 595 c0 -16 6 -25 15 -25 9 0 15 9 15 25 0 16 -6 25 -15 25 -9 0
-15 -9 -15 -25z"/>
<path d="M925 530 c-11 -17 13 -49 33 -43 14 3 18 11 14 29 -4 24 -35 34 -47
14z"/>
<path d="M2085 4730 c-111 -12 -322 -56 -419 -87 -215 -69 -372 -149 -563
-286 -91 -65 -88 -57 -39 -147 98 -180 205 -297 302 -331 22 -8 47 -21 56 -29
9 -9 40 -78 68 -155 84 -230 192 -439 309 -594 l55 -74 8 31 c10 36 51 72 84
72 12 0 62 -25 111 -55 58 -37 95 -54 108 -51 63 16 135 17 194 3 l63 -15 37
32 c99 88 140 98 184 47 l25 -30 20 22 c42 47 136 197 191 307 61 122 95 202
143 340 16 47 36 95 43 106 8 12 48 39 89 59 85 42 152 107 222 215 42 66 124
223 124 237 -1 10 -70 57 -170 115 -205 120 -433 200 -711 249 -130 22 -409
33 -534 19z"/>
</g>
</svg>
